<?xml version="1.0" encoding="UTF-8"?> <svg xmlns="http://www.w3.org/2000/svg" xmlns:xlink="http://www.w3.org/1999/xlink" width="212" height="43.121" viewBox="0 0 212 43.121"><defs><linearGradient id="linear-gradient" y1="0.5" x2="1" y2="0.5" gradientUnits="objectBoundingBox"><stop offset="0" stop-color="#ff3a3d"></stop><stop offset="1" stop-color="#f7393c"></stop></linearGradient></defs><g id="Grupo_16889" data-name="Grupo 16889" transform="translate(1)"><g id="Grupo_1" data-name="Grupo 1" transform="translate(52.712)"><path id="Caminho_1" data-name="Caminho 1" d="M737.366,378.736A5.135,5.135,0,0,1,742.5,373.6h1.888a3.618,3.618,0,0,1,3.42,1.828c2.3,3.6,4.424,6.9,6.252,9.79,1.12,1.769,2.064,3.185,2.713,4.187,1.062,1.71,2.123,3.479,3.244,5.19.413.649.649,1,.708,1.121h.236c.295,0,.354-.059.354-.177V378.736a5.13,5.13,0,0,1,3.244-4.777,5.343,5.343,0,0,1,1.887-.354h3.833a1.213,1.213,0,0,1,1,.413,1.467,1.467,0,0,1,.413,1.12v38.04a1.421,1.421,0,0,1-.413,1.062,1.257,1.257,0,0,1-1,.472H763.61a2.068,2.068,0,0,1-2.005-1.12q-3.539-5.4-6.369-9.731c-1.593-2.3-3.185-4.659-4.6-7.077-.59-.885-1.062-1.592-1.474-2.241q-.619-.885-.708-1.062a1.143,1.143,0,0,0-.412-.059l-.236,19.817a1.262,1.262,0,0,1-.412,1.061,1.469,1.469,0,0,1-1.121.413H738.84a1.636,1.636,0,0,1-1.474-1.474Z" transform="translate(-656.276 -372.72)" fill="#f6f7f8"></path><path id="Caminho_2" data-name="Caminho 2" d="M616.154,413.052,608.723,399.6a.772.772,0,0,1-.118-.649.832.832,0,0,1,.472-.708,12.055,12.055,0,0,0,6.311-10.969c0-9.731-7.431-13.447-16.514-13.447h-12.5a5.012,5.012,0,0,0-5.131,5.072v34.56a1.63,1.63,0,0,0,1.474,1.415h8.08a1.422,1.422,0,0,0,1.062-.412,1.216,1.216,0,0,0,.413-1v-9.731a2.6,2.6,0,0,0-.024-.335v-2.791h4.566a1.685,1.685,0,0,1,1.592.944l6.016,11.8a2.433,2.433,0,0,0,2.359,1.533h8.315a1.418,1.418,0,0,0,.885-.354,1.163,1.163,0,0,0,.354-.825A1.538,1.538,0,0,0,616.154,413.052Zm-17.339-21.114h-4.846a1.525,1.525,0,0,1-1.239-.531,1.743,1.743,0,0,1-.486-.849v-8.292h6.571a5.7,5.7,0,0,1,3.775,1.239,4.845,4.845,0,0,1,1.415,3.716C604.005,390.4,601.882,391.938,598.815,391.938Z" transform="translate(-581.24 -372.83)" fill="#f6f7f8"></path><path id="Caminho_3" data-name="Caminho 3" d="M692.241,413.283l-13.683-37.627a2.387,2.387,0,0,0-2.359-1.71h-9.141a2.387,2.387,0,0,0-2.359,1.71l-13.683,37.627c-.059.059-.059.236-.059.531a1.21,1.21,0,0,0,1.239,1.239H659.8a1.942,1.942,0,0,0,2.005-1.3l.577-1.566h0l.249-.675a3.242,3.242,0,0,0,.2-.745l.867-2.742a43.834,43.834,0,0,0,14.68-2.588l3.066,8.316a1.942,1.942,0,0,0,2.005,1.3h7.608a1.286,1.286,0,0,0,1.238-1.239C692.3,413.519,692.3,413.342,692.241,413.283ZM666.367,399.6l.778-2.46h0l4.454-12.869,4.541,12.975C673.449,398.7,669.368,399.411,666.367,399.6Z" transform="translate(-614.747 -372.884)" fill="#f6f7f8"></path><path id="Caminho_4" data-name="Caminho 4" d="M847.436,389.831h-8.729a4.913,4.913,0,0,0-4.718,3.244,5.285,5.285,0,0,0-.354,1.829v1a1.421,1.421,0,0,0,.413,1.062,1.3,1.3,0,0,0,1.062.472h6.7c-.407,4.049-1.7,5.856-2.258,6.38a6.043,6.043,0,0,1-.79.58,2.988,2.988,0,0,1-1.062.531,13.656,13.656,0,0,1-3.834.413c-5.249,0-7.962-2-8.08-7.431-.059-.531-.059-1.239-.059-2.123v-5.957c0-.826,0-1.533.059-2.064q.266-7.077,7.077-7.077a7.5,7.5,0,0,1,4.364,1.18,14.4,14.4,0,0,1,1.357,1.3,7.942,7.942,0,0,1,.885,1.533,2.1,2.1,0,0,0,.649.59,1.224,1.224,0,0,0,.884.236h9.083a1.309,1.309,0,0,0,1.3-1.3,9.882,9.882,0,0,0-2.3-5.839c-3.775-4.777-10.38-6.487-16.219-6.487-9.731,0-18.223,4.659-18.459,15.57-.059.531-.059,1.3-.059,2.182v6.369c0,.885,0,1.652.059,2.182.236,10.793,7.962,15.983,18.459,15.983,9.908,0,18.7-4.9,18.7-16.042v-4.069C851.564,391.246,850.267,389.831,847.436,389.831Z" transform="translate(-693.276 -371.902)" fill="#f6f7f8"></path></g><g id="Caminho_5" data-name="Caminho 5" transform="translate(-479.75 -372.91)" fill="url(#linear-gradient)"><path d="M 517.3997802734375 415.5314025878906 L 499.8195190429688 415.5314025878906 C 498.7829284667969 415.5314025878906 497.8083190917969 415.1275939941406 497.0752563476562 414.3943786621094 L 480.3868713378906 397.7061157226562 C 479.6537780761719 396.9729614257812 479.2500610351562 395.9983825683594 479.2500610351562 394.9618835449219 L 479.2500610351562 377.3816833496094 C 479.2500610351562 375.2413024902344 480.9913635253906 373.4999694824219 483.1317138671875 373.4999694824219 L 517.3997802734375 373.4999694824219 C 519.5401000976562 373.4999694824219 521.2814331054688 375.2413024902344 521.2814331054688 377.3816833496094 L 521.2814331054688 411.6496887207031 C 521.2814331054688 413.7900695800781 519.5401000976562 415.5314025878906 517.3997802734375 415.5314025878906 Z" stroke="none"></path><path d="M 517.3997802734375 415.0314025878906 C 519.267333984375 415.0314025878906 520.7814331054688 413.5173645019531 520.7814331054688 411.6496887207031 L 520.7814331054688 377.3816833496094 C 520.7814331054688 375.5139465332031 519.267333984375 373.9999694824219 517.3997802734375 373.9999694824219 L 483.1317138671875 373.9999694824219 C 481.2639770507812 373.9999694824219 479.7500610351562 375.5139465332031 479.7500610351562 377.3816833496094 L 479.7500610351562 394.9618835449219 C 479.7500610351562 395.8582458496094 480.1062622070312 396.7183532714844 480.7404174804688 397.3525695800781 L 497.4288330078125 414.0408630371094 C 498.0629272460938 414.6750793457031 498.9230346679688 415.0314025878906 499.8195190429688 415.0314025878906 L 517.3997802734375 415.0314025878906 M 517.3997802734375 416.0314025878906 L 499.8195190429688 416.0314025878906 C 498.6493530273438 416.0314025878906 497.5491943359375 415.5755920410156 496.7216796875 414.7478942871094 L 480.0333251953125 398.0596618652344 C 479.2057800292969 397.2320556640625 478.7500610351562 396.1319274902344 478.7500610351562 394.9618835449219 L 478.7500610351562 377.3816833496094 C 478.7500610351562 374.9656066894531 480.7156677246094 372.9999694824219 483.1317138671875 372.9999694824219 L 517.3997802734375 372.9999694824219 C 519.8158569335938 372.9999694824219 521.7814331054688 374.9656066894531 521.7814331054688 377.3816833496094 L 521.7814331054688 411.6496887207031 C 521.7814331054688 414.0657653808594 519.8158569335938 416.0314025878906 517.3997802734375 416.0314025878906 Z" stroke="none" fill="#fff"></path></g><path id="Caminho_6" data-name="Caminho 6" d="M509.277,392.25h-9.349a1.428,1.428,0,0,0-1.428,1.428v18.7a1.428,1.428,0,0,0,1.428,1.428h7.921a1.428,1.428,0,0,0,1.428-1.428v-7.921a1.428,1.428,0,0,1,1.428-1.428h7.921a1.428,1.428,0,0,0,1.428-1.428v-7.921a1.428,1.428,0,0,0-1.428-1.428Z" transform="translate(-488.762 -381.682)" fill="#fff"></path></g></svg> 